<svg xmlns="http://www.w3.org/2000/svg" width="375" viewBox="0 0 375 375" height="375" version="1.0"><path fill="#6E9056" d="M 361.066406 195.25 C 355.992188 144.53125 326.152344 124.089844 324.300781 115.074219 C 323.285156 110.132812 325.691406 103.246094 325.75 98.09375 C 326.632812 25.582031 240.265625 9.445312 209.765625 71.511719 C 196.933594 69.804688 187.621094 68.84375 174.730469 69.199219 C 179.523438 69.074219 162.175781 39.242188 159.871094 37.121094 C 127.65625 7.441406 76.804688 26.683594 69.390625 83.167969 C -9.863281 149.359375 -6.3125 252.960938 62.28125 295.023438 C 192.492188 374.914062 374.847656 332.753906 361.066406 195.25 Z M 361.066406 195.25"/><path fill="#1D1D1B" d="M 147.242188 65.804688 C 147.242188 93.355469 105.558594 93.402344 105.558594 65.804688 C 105.558594 38.207031 147.242188 38.207031 147.242188 65.804688 Z M 147.242188 65.804688"/><path fill="#1D1D1B" d="M 287.039062 77.949219 C 287.039062 105.507812 245.359375 105.546875 245.359375 77.949219 C 245.359375 50.351562 287.039062 50.359375 287.039062 77.949219 Z M 287.039062 77.949219"/><path fill="#1D1D1B" d="M 203.167969 115.484375 C 203.003906 116.144531 202.796875 116.785156 202.539062 117.414062 C 202.28125 118.039062 201.980469 118.644531 201.632812 119.226562 C 201.285156 119.804688 200.894531 120.359375 200.464844 120.882812 C 200.035156 121.40625 199.566406 121.894531 199.066406 122.347656 C 198.5625 122.800781 198.027344 123.210938 197.460938 123.585938 C 196.898438 123.960938 196.308594 124.289062 195.691406 124.574219 C 195.078125 124.859375 194.445312 125.097656 193.796875 125.285156 C 193.144531 125.476562 192.484375 125.617188 191.8125 125.707031 C 191.144531 125.800781 190.46875 125.839844 189.792969 125.832031 C 189.113281 125.820312 188.441406 125.761719 187.773438 125.652344 C 187.105469 125.539062 186.449219 125.382812 185.804688 125.171875 C 185.160156 124.964844 184.535156 124.707031 183.929688 124.40625 C 183.324219 124.105469 182.742188 123.757812 182.1875 123.367188 C 181.632812 122.980469 181.109375 122.550781 180.621094 122.085938 C 180.128906 121.617188 179.679688 121.117188 179.261719 120.582031 C 178.847656 120.046875 178.472656 119.480469 178.144531 118.890625 C 176.617188 116.28125 172.636719 118.601562 174.097656 121.261719 C 181.914062 135.476562 203.683594 133.164062 207.875 116.78125 C 208.625 113.738281 203.914062 112.484375 203.167969 115.484375 Z M 203.167969 115.484375"/><path fill="#F2CA68" d="M 144.660156 194.136719 C 104.609375 213.042969 76.984375 260.058594 86.453125 308.222656 C 158.921875 343.210938 238.949219 341.234375 290.28125 317.527344 C 315.085938 231.882812 225.675781 155.910156 144.660156 194.136719 Z M 144.660156 194.136719"/><path fill="#6E9055" d="M 101.855469 201.964844 C 101.855469 201.964844 151.855469 256.863281 123.070312 273.640625 C 94.289062 290.417969 79.113281 255.550781 79.113281 255.550781"/><path fill="#4D6C34" d="M 107.886719 281.566406 C 105.035156 281.5625 102.253906 281.117188 99.542969 280.222656 C 84.199219 275.175781 76.363281 257.621094 76.035156 256.875 C 75.859375 256.464844 75.765625 256.039062 75.757812 255.59375 C 75.75 255.148438 75.828125 254.71875 75.992188 254.304688 C 76.15625 253.890625 76.390625 253.523438 76.699219 253.203125 C 77.011719 252.882812 77.367188 252.632812 77.777344 252.457031 C 78.183594 252.277344 78.613281 252.1875 79.058594 252.179688 C 79.503906 252.171875 79.933594 252.25 80.347656 252.414062 C 80.761719 252.574219 81.128906 252.8125 81.449219 253.121094 C 81.769531 253.429688 82.015625 253.789062 82.195312 254.199219 C 82.261719 254.351562 89.136719 269.765625 101.664062 273.851562 C 107.773438 275.847656 114.410156 274.8125 121.375 270.734375 C 122.320312 270.234375 123.195312 269.628906 123.996094 268.917969 C 124.796875 268.207031 125.503906 267.414062 126.121094 266.535156 C 126.734375 265.65625 127.234375 264.71875 127.625 263.722656 C 128.015625 262.726562 128.285156 261.695312 128.433594 260.632812 C 131.070312 243.433594 108.347656 214.082031 99.371094 204.230469 C 99.070312 203.898438 98.847656 203.519531 98.695312 203.097656 C 98.546875 202.675781 98.480469 202.242188 98.503906 201.796875 C 98.527344 201.347656 98.632812 200.921875 98.824219 200.519531 C 99.015625 200.113281 99.28125 199.761719 99.609375 199.460938 C 99.941406 199.160156 100.320312 198.9375 100.742188 198.785156 C 101.164062 198.636719 101.597656 198.570312 102.042969 198.59375 C 102.492188 198.617188 102.917969 198.722656 103.320312 198.914062 C 103.726562 199.105469 104.078125 199.367188 104.378906 199.699219 C 105.777344 201.246094 138.773438 237.785156 135.070312 261.652344 C 134.847656 263.207031 134.453125 264.714844 133.878906 266.179688 C 133.308594 267.640625 132.574219 269.019531 131.675781 270.308594 C 130.78125 271.597656 129.75 272.769531 128.582031 273.820312 C 127.414062 274.867188 126.136719 275.769531 124.757812 276.519531 C 119.015625 279.886719 113.363281 281.566406 107.886719 281.566406 Z M 107.886719 281.566406"/><path fill="#6E9055" d="M 264.328125 201.792969 C 264.328125 201.792969 220.210938 261.554688 250.613281 275.273438 C 281.015625 288.992188 292.460938 252.738281 292.460938 252.738281"/><path fill="#4D6C34" d="M 263.707031 281.738281 C 258.625 281.648438 253.792969 280.511719 249.203125 278.332031 C 247.753906 277.726562 246.390625 276.960938 245.121094 276.035156 C 243.847656 275.113281 242.703125 274.054688 241.679688 272.859375 C 240.65625 271.664062 239.785156 270.371094 239.0625 268.972656 C 238.34375 267.574219 237.792969 266.113281 237.417969 264.585938 C 231.335938 241.226562 260.386719 201.484375 261.671875 199.777344 C 261.9375 199.421875 262.261719 199.128906 262.640625 198.898438 C 263.023438 198.671875 263.433594 198.523438 263.871094 198.457031 C 264.3125 198.390625 264.75 198.414062 265.179688 198.519531 C 265.609375 198.628906 266.003906 198.8125 266.363281 199.078125 C 266.71875 199.34375 267.015625 199.664062 267.242188 200.046875 C 267.472656 200.425781 267.621094 200.835938 267.6875 201.277344 C 267.753906 201.714844 267.734375 202.152344 267.628906 202.582031 C 267.519531 203.015625 267.335938 203.410156 267.070312 203.769531 C 266.792969 204.152344 238.691406 242.601562 243.984375 262.878906 C 244.242188 263.917969 244.613281 264.914062 245.105469 265.863281 C 245.597656 266.816406 246.195312 267.695312 246.894531 268.507812 C 247.59375 269.316406 248.378906 270.03125 249.25 270.65625 C 250.121094 271.277344 251.050781 271.792969 252.042969 272.195312 C 259.390625 275.511719 266.09375 275.867188 271.972656 273.257812 C 284.007812 267.90625 289.238281 251.855469 289.3125 251.703125 C 289.453125 251.285156 289.667969 250.910156 289.957031 250.578125 C 290.246094 250.246094 290.585938 249.980469 290.976562 249.78125 C 291.371094 249.585938 291.785156 249.46875 292.222656 249.433594 C 292.664062 249.398438 293.089844 249.445312 293.511719 249.578125 C 293.929688 249.710938 294.308594 249.917969 294.644531 250.203125 C 294.984375 250.484375 295.253906 250.820312 295.460938 251.207031 C 295.667969 251.597656 295.789062 252.011719 295.835938 252.449219 C 295.878906 252.886719 295.835938 253.316406 295.710938 253.738281 C 295.460938 254.503906 289.535156 272.769531 274.734375 279.378906 C 271.226562 280.957031 267.550781 281.746094 263.707031 281.738281 Z M 263.707031 281.738281"/><path fill="#99C174" d="M 75.882812 103.320312 C 74.242188 94.621094 60.75 97.132812 63.050781 105.769531 C 65.582031 114.09375 77.082031 112.234375 75.882812 103.320312 Z M 75.882812 103.320312"/><path fill="#99C174" d="M 91.085938 121 C 89.445312 112.300781 75.949219 114.832031 78.25 123.410156 C 80.785156 131.773438 92.285156 129.921875 91.085938 121 Z M 91.085938 121"/><path fill="#99C174" d="M 305.550781 116.945312 C 303.910156 108.253906 290.417969 110.777344 292.726562 119.359375 C 295.242188 127.726562 306.75 125.914062 305.550781 116.945312 Z M 305.550781 116.945312"/><path fill="#99C174" d="M 293.542969 138.183594 C 291.902344 129.480469 278.410156 132.003906 280.71875 140.589844 C 283.242188 148.9375 294.742188 147.09375 293.542969 138.183594 Z M 293.542969 138.183594"/><path fill="#99C174" d="M 283.234375 116.945312 C 281.59375 108.253906 268.097656 110.777344 270.398438 119.359375 C 272.933594 127.726562 284.433594 125.914062 283.234375 116.945312 Z M 283.234375 116.945312"/><path fill="#99C174" d="M 96.867188 100.972656 C 95.601562 94.257812 85.195312 96.175781 86.980469 102.832031 C 88.925781 109.328125 97.789062 107.886719 96.867188 100.972656 Z M 96.867188 100.972656"/></svg>