<svg xmlns="http://www.w3.org/2000/svg" width="1440" viewBox="0 0 1440 810" height="810" version="1.0"><path fill="#A9DA26" d="M 645.003906 5.089844 L 795.324219 5.089844 L 795.324219 443.410156 L 645.003906 443.410156 L 645.003906 5.089844"/><path fill="#A9DA26" d="M 790.234375 438.328125 L 800.414062 438.328125 L 800.414062 448.492188 L 790.234375 448.492188 L 790.234375 438.328125 M 639.914062 10.171875 L 650.09375 10.171875 L 650.09375 438.328125 L 639.914062 438.328125 L 639.914062 10.171875 M 639.914062 438.328125 L 650.09375 438.328125 L 650.09375 448.492188 L 639.914062 448.492188 L 639.914062 438.328125 M 790.234375 10.171875 L 800.414062 10.171875 L 800.414062 438.328125 L 790.234375 438.328125 L 790.234375 10.171875 M 650.09375 438.328125 L 790.234375 438.328125 L 790.234375 448.492188 L 650.09375 448.492188 L 650.09375 438.328125 M 790.234375 0.0078125 L 800.414062 0.0078125 L 800.414062 10.171875 L 790.234375 10.171875 L 790.234375 0.0078125 M 639.914062 0.0078125 L 650.09375 0.0078125 L 650.09375 10.171875 L 639.914062 10.171875 L 639.914062 0.0078125 M 650.09375 0.0078125 L 790.234375 0.0078125 L 790.234375 10.171875 L 650.09375 10.171875 L 650.09375 0.0078125"/><path fill="#A9DA26" d="M 645.003906 410.089844 L 795.324219 410.089844 L 795.324219 804.910156 L 645.003906 804.910156 L 645.003906 410.089844"/><path fill="#A9DA26" d="M 790.234375 799.828125 L 800.414062 799.828125 L 800.414062 809.988281 L 790.234375 809.988281 L 790.234375 799.828125 M 639.914062 415.171875 L 650.09375 415.171875 L 650.09375 799.828125 L 639.914062 799.828125 L 639.914062 415.171875 M 639.914062 799.828125 L 650.09375 799.828125 L 650.09375 809.988281 L 639.914062 809.988281 L 639.914062 799.828125 M 790.234375 415.171875 L 800.414062 415.171875 L 800.414062 799.828125 L 790.234375 799.828125 L 790.234375 415.171875 M 650.09375 799.828125 L 790.234375 799.828125 L 790.234375 809.988281 L 650.09375 809.988281 L 650.09375 799.828125 M 790.234375 405.011719 L 800.414062 405.011719 L 800.414062 415.171875 L 790.234375 415.171875 L 790.234375 405.011719 M 639.914062 405.011719 L 650.09375 405.011719 L 650.09375 415.171875 L 639.914062 415.171875 L 639.914062 405.011719 M 650.09375 405.011719 L 790.234375 405.011719 L 790.234375 415.171875 L 650.09375 415.171875 L 650.09375 405.011719"/><path fill="#38B6FF" d="M 722.300781 330.007812 L 722.300781 480.328125 L -4.746094 480.328125 L -4.746094 330.007812 L 722.300781 330.007812"/><path fill="#38B6FF" d="M 0.332031 475.238281 L 0.332031 485.417969 L -9.824219 485.417969 L -9.824219 475.238281 L 0.332031 475.238281 M 717.222656 324.917969 L 717.222656 335.097656 L 0.332031 335.097656 L 0.332031 324.917969 L 717.222656 324.917969 M 0.332031 324.917969 L 0.332031 335.097656 L -9.824219 335.097656 L -9.824219 324.917969 L 0.332031 324.917969 M 717.222656 475.238281 L 717.222656 485.417969 L 0.332031 485.417969 L 0.332031 475.238281 L 717.222656 475.238281 M 0.332031 335.097656 L 0.332031 475.238281 L -9.824219 475.238281 L -9.824219 335.097656 L 0.332031 335.097656 M 727.378906 475.238281 L 727.378906 485.417969 L 717.222656 485.417969 L 717.222656 475.238281 L 727.378906 475.238281 M 727.378906 324.917969 L 727.378906 335.097656 L 717.222656 335.097656 L 717.222656 324.917969 L 727.378906 324.917969 M 727.378906 335.097656 L 727.378906 475.238281 L 717.222656 475.238281 L 717.222656 335.097656 L 727.378906 335.097656"/><path fill="#38B6FF" d="M 1444.808594 330.007812 L 1444.808594 480.332031 L 725.261719 480.332031 L 725.261719 330.007812 L 1444.808594 330.007812"/><path fill="#38B6FF" d="M 730.335938 475.242188 L 730.335938 485.417969 L 720.183594 485.417969 L 720.183594 475.242188 L 730.335938 475.242188 M 1439.730469 324.917969 L 1439.730469 335.097656 L 730.335938 335.097656 L 730.335938 324.917969 L 1439.730469 324.917969 M 730.335938 324.917969 L 730.335938 335.097656 L 720.183594 335.097656 L 720.183594 324.917969 L 730.335938 324.917969 M 1439.730469 475.242188 L 1439.730469 485.417969 L 730.335938 485.417969 L 730.335938 475.242188 L 1439.730469 475.242188 M 730.335938 335.097656 L 730.335938 475.242188 L 720.183594 475.242188 L 720.183594 335.097656 L 730.335938 335.097656 M 1449.886719 475.242188 L 1449.886719 485.417969 L 1439.730469 485.417969 L 1439.730469 475.242188 L 1449.886719 475.242188 M 1449.886719 324.917969 L 1449.886719 335.097656 L 1439.730469 335.097656 L 1439.730469 324.917969 L 1449.886719 324.917969 M 1449.886719 335.097656 L 1449.886719 475.242188 L 1439.730469 475.242188 L 1439.730469 335.097656 L 1449.886719 335.097656"/></svg>