<svg xmlns="http://www.w3.org/2000/svg" width="375" viewBox="0 0 375 375" height="375" version="1.0"><defs><clipPath id="a"><path d="M 88.105469 15.386719 L 285 15.386719 L 285 359.636719 L 88.105469 359.636719 Z M 88.105469 15.386719"/></clipPath></defs><path fill="#18944D" d="M 120.859375 170.644531 C 120.621094 169.816406 99.789062 87.257812 131.640625 45.257812 C 143.535156 29.570312 161.507812 21.371094 185.0625 20.875 C 185.457031 20.867188 185.828125 20.777344 186.179688 20.605469 C 186.53125 20.777344 186.90625 20.867188 187.296875 20.875 C 210.855469 21.371094 228.828125 29.570312 240.71875 45.257812 C 272.570312 87.257812 251.738281 169.816406 251.5 170.644531 C 251.394531 171.058594 251.386719 171.476562 251.476562 171.894531 C 251.566406 172.3125 251.746094 172.691406 252.011719 173.023438 L 234.453125 172.765625 C 234.652344 172.449219 234.78125 172.101562 234.839844 171.734375 C 235.332031 168.347656 246.695312 88.460938 218.242188 55.507812 C 210.25 46.25 199.839844 41.558594 187.304688 41.558594 C 174.765625 41.558594 164.359375 46.25 156.402344 55.507812 C 128.585938 87.707031 138.820312 164.75 139.769531 171.367188 L 120.902344 171.070312 C 120.902344 170.929688 120.886719 170.785156 120.859375 170.644531 Z M 277.488281 197.402344 C 274.113281 178.148438 261.894531 178.601562 261.375 178.632812 L 261.15625 178.632812 L 111.394531 176.425781 C 98.617188 178.925781 95.078125 199.566406 94.769531 201.578125 C 94.710938 206.867188 93.695312 315.9375 94.769531 335.167969 C 95.722656 352.359375 122.308594 353.609375 122.582031 353.617188 C 157.03125 354.226562 249.078125 355.019531 260.390625 351.507812 C 272.4375 347.765625 275.140625 325.234375 275.246094 324.011719 C 275.421875 320.878906 281.222656 218.761719 277.488281 197.402344 Z M 277.488281 197.402344"/><path fill="#7ED957" d="M 186.726562 312.59375 C 179.964844 308.679688 126.074219 276.0625 141.242188 239.527344 C 145.269531 229.828125 150.210938 224.65625 155.945312 224.144531 C 166.921875 223.167969 179.773438 239.21875 183.800781 245.492188 C 184.113281 245.980469 184.539062 246.332031 185.078125 246.546875 C 185.613281 246.761719 186.164062 246.800781 186.726562 246.667969 C 187.292969 246.800781 187.839844 246.761719 188.378906 246.546875 C 188.917969 246.332031 189.34375 245.980469 189.65625 245.492188 C 193.675781 239.21875 206.511719 223.160156 217.503906 224.144531 C 223.238281 224.648438 228.1875 229.828125 232.207031 239.527344 C 247.363281 276.035156 193.484375 308.679688 186.726562 312.59375 Z M 186.726562 312.59375"/><g clip-path="url(#a)"><path d="M 282.878906 196.460938 C 278.890625 173.644531 263.257812 173.117188 261.21875 173.179688 L 256.269531 173.109375 C 256.535156 172.792969 256.71875 172.433594 256.824219 172.035156 C 257.722656 168.523438 278.511719 86.105469 245.085938 41.976562 C 232.136719 24.886719 212.730469 15.984375 187.410156 15.421875 C 186.980469 15.410156 186.570312 15.492188 186.179688 15.675781 C 185.8125 15.492188 185.417969 15.402344 185.007812 15.402344 L 184.949219 15.402344 C 159.667969 15.929688 140.226562 24.863281 127.273438 41.957031 C 95.421875 83.996094 112.792969 160.828125 115.285156 171.007812 L 111.203125 170.945312 C 111.027344 170.941406 110.855469 170.957031 110.683594 170.988281 C 93.179688 174.066406 89.464844 199.875 89.320312 200.992188 C 89.3125 201.109375 89.3125 201.222656 89.320312 201.339844 C 89.253906 205.996094 88.195312 315.683594 89.296875 335.46875 C 90.527344 357.632812 121.066406 359.039062 122.421875 359.097656 C 124.894531 359.136719 154.46875 359.652344 185.898438 359.652344 C 219.191406 359.652344 254.570312 359.074219 262.011719 356.757812 C 277.78125 351.839844 280.582031 325.632812 280.695312 324.523438 C 280.695312 324.480469 280.695312 324.445312 280.695312 324.402344 C 280.957031 320.097656 286.765625 218.664062 282.878906 196.460938 Z M 120.859375 170.644531 C 120.621094 169.816406 99.789062 87.257812 131.640625 45.257812 C 143.535156 29.570312 161.507812 21.371094 185.0625 20.875 C 185.457031 20.867188 185.828125 20.777344 186.179688 20.605469 C 186.53125 20.777344 186.90625 20.867188 187.296875 20.875 C 210.855469 21.371094 228.828125 29.570312 240.71875 45.257812 C 272.570312 87.257812 251.738281 169.816406 251.5 170.644531 C 251.394531 171.058594 251.386719 171.476562 251.476562 171.894531 C 251.566406 172.3125 251.746094 172.691406 252.011719 173.023438 L 234.453125 172.765625 C 234.652344 172.449219 234.78125 172.101562 234.839844 171.734375 C 235.332031 168.347656 246.695312 88.460938 218.242188 55.507812 C 210.25 46.25 199.839844 41.558594 187.304688 41.558594 C 174.765625 41.558594 164.359375 46.25 156.402344 55.507812 C 128.585938 87.707031 138.820312 164.75 139.769531 171.367188 L 120.902344 171.070312 C 120.902344 170.929688 120.886719 170.785156 120.859375 170.644531 Z M 145.28125 171.453125 C 145.296875 171.277344 145.296875 171.105469 145.28125 170.929688 C 145.164062 170.128906 133.761719 90.136719 160.601562 59.085938 C 167.503906 51.089844 176.523438 47.03125 187.394531 47.03125 C 198.269531 47.03125 207.25 51.089844 214.148438 59.085938 C 240.964844 90.136719 229.601562 170.128906 229.464844 170.929688 C 229.375 171.5625 229.492188 172.148438 229.816406 172.695312 Z M 275.238281 324.023438 C 275.105469 325.246094 272.429688 347.777344 260.382812 351.523438 C 249.070312 355.035156 157.027344 354.226562 122.574219 353.628906 C 122.300781 353.628906 95.71875 352.371094 94.761719 335.179688 C 93.695312 315.9375 94.710938 206.902344 94.769531 201.578125 C 95.078125 199.566406 98.617188 178.925781 111.394531 176.425781 L 261.15625 178.636719 L 261.375 178.636719 C 261.894531 178.636719 274.113281 178.152344 277.488281 197.410156 C 281.222656 218.761719 275.421875 320.878906 275.238281 324.023438 Z M 217.988281 218.640625 C 204.386719 217.433594 191.300781 233.703125 186.726562 240.046875 C 182.164062 233.726562 169.058594 217.425781 155.464844 218.640625 C 147.542969 219.34375 141.054688 225.667969 136.1875 237.386719 C 128.683594 255.460938 134.851562 275.183594 154.011719 294.410156 C 163.265625 303.523438 173.519531 311.316406 184.777344 317.792969 C 185.386719 318.140625 186.035156 318.222656 186.714844 318.046875 C 187.394531 318.222656 188.039062 318.140625 188.652344 317.792969 C 199.914062 311.324219 210.171875 303.535156 219.429688 294.425781 C 238.589844 275.195312 244.757812 255.476562 237.253906 237.398438 C 232.402344 225.667969 225.914062 219.359375 217.988281 218.65625 Z M 186.726562 312.59375 C 179.964844 308.679688 126.074219 276.0625 141.242188 239.527344 C 145.269531 229.828125 150.210938 224.65625 155.945312 224.144531 C 166.921875 223.167969 179.773438 239.21875 183.800781 245.492188 C 184.113281 245.980469 184.539062 246.332031 185.078125 246.546875 C 185.613281 246.761719 186.164062 246.800781 186.726562 246.667969 C 187.292969 246.800781 187.839844 246.761719 188.378906 246.546875 C 188.917969 246.332031 189.34375 245.980469 189.65625 245.492188 C 193.675781 239.21875 206.511719 223.160156 217.503906 224.144531 C 223.238281 224.648438 228.1875 229.828125 232.207031 239.527344 C 247.363281 276.035156 193.484375 308.679688 186.726562 312.59375 Z M 186.726562 312.59375"/></g><path fill="#FFF" d="M 240.84375 57.714844 C 240.910156 57.957031 240.929688 58.203125 240.898438 58.453125 C 240.867188 58.703125 240.789062 58.9375 240.667969 59.15625 C 240.542969 59.375 240.378906 59.5625 240.183594 59.71875 C 239.984375 59.875 239.761719 59.984375 239.519531 60.050781 C 239.277344 60.117188 239.03125 60.136719 238.78125 60.105469 C 238.53125 60.074219 238.296875 59.996094 238.078125 59.875 C 237.859375 59.75 237.671875 59.585938 237.519531 59.390625 C 237.363281 59.191406 237.253906 58.96875 237.183594 58.726562 C 230.800781 40.804688 215.125 31.476562 196.503906 30.433594 C 193.871094 30.289062 193.863281 26.171875 196.503906 26.324219 C 215.328125 27.414062 236.378906 37.671875 240.84375 57.714844 Z M 244.355469 69.273438 C 244.25 68.980469 244.0625 68.765625 243.785156 68.621094 C 243.511719 68.476562 243.226562 68.449219 242.925781 68.53125 C 242.628906 68.609375 242.394531 68.785156 242.230469 69.046875 C 242.066406 69.308594 242.015625 69.59375 242.074219 69.898438 C 242.777344 72.476562 243.359375 75.140625 244.230469 77.660156 C 244.277344 77.824219 244.351562 77.976562 244.457031 78.109375 C 244.566406 78.242188 244.691406 78.351562 244.839844 78.433594 C 244.992188 78.519531 245.148438 78.570312 245.320312 78.589844 C 245.488281 78.609375 245.65625 78.597656 245.820312 78.550781 C 245.984375 78.503906 246.132812 78.425781 246.269531 78.320312 C 246.402344 78.214844 246.511719 78.085938 246.59375 77.9375 C 246.679688 77.789062 246.730469 77.628906 246.75 77.460938 C 246.769531 77.289062 246.753906 77.121094 246.710938 76.957031 C 246.097656 74.378906 245.179688 71.824219 244.363281 69.273438 Z M 267.960938 238.761719 C 270.210938 233.710938 270.457031 228.363281 270.890625 222.914062 C 271.332031 217.292969 272.296875 211.347656 270.890625 205.839844 C 268.65625 196.917969 262.464844 189.613281 253.851562 186.445312 C 247.796875 184.210938 245.183594 193.882812 251.191406 196.097656 C 258.523438 198.792969 260.757812 206.390625 262.644531 213.210938 C 264.941406 221.507812 262.8125 230.074219 264.894531 238.363281 C 265.246094 239.65625 267.371094 240.105469 267.96875 238.761719 Z M 272.175781 255.625 C 272.167969 255.285156 272.097656 254.957031 271.960938 254.644531 C 271.828125 254.328125 271.640625 254.050781 271.398438 253.8125 C 271.15625 253.570312 270.878906 253.382812 270.566406 253.246094 C 270.253906 253.113281 269.925781 253.039062 269.585938 253.03125 C 268.285156 253.03125 266.867188 254.21875 266.992188 255.625 C 267.128906 257.011719 267.167969 258.402344 267.105469 259.796875 C 267.035156 261.203125 266.675781 262.558594 267.0625 263.949219 C 267.625 266.007812 270.292969 266.175781 271.402344 264.511719 C 272.941406 262.234375 272.484375 258.1875 272.203125 255.617188 Z M 221.664062 234.851562 C 216.839844 232.125 211.277344 234.78125 206.914062 237.175781 C 204.996094 238.230469 206.695312 241.089844 208.628906 240.097656 C 211.484375 238.628906 214.660156 236.914062 217.960938 237.820312 C 221.550781 238.8125 222.070312 242.492188 222.175781 245.703125 C 222.175781 246.949219 222.042969 249.503906 223.75 249.835938 C 225.457031 250.164062 226.019531 247.910156 226.207031 246.714844 C 226.917969 242.3125 225.84375 237.183594 221.691406 234.84375 Z M 224.789062 257.332031 C 224.507812 257.257812 224.21875 257.238281 223.929688 257.277344 C 223.640625 257.3125 223.367188 257.40625 223.113281 257.550781 C 222.859375 257.695312 222.644531 257.878906 222.460938 258.109375 C 222.28125 258.339844 222.152344 258.597656 222.070312 258.878906 C 221.789062 260.074219 221.507812 261.28125 221.222656 262.496094 C 221.144531 262.773438 221.125 263.058594 221.160156 263.347656 C 221.195312 263.632812 221.285156 263.902344 221.429688 264.15625 C 221.570312 264.40625 221.757812 264.621094 221.984375 264.800781 C 222.214844 264.976562 222.46875 265.105469 222.75 265.183594 C 223.027344 265.257812 223.3125 265.28125 223.597656 265.242188 C 223.886719 265.207031 224.15625 265.117188 224.40625 264.976562 C 224.660156 264.832031 224.875 264.644531 225.054688 264.417969 C 225.230469 264.1875 225.359375 263.933594 225.433594 263.65625 L 226.328125 260.050781 C 226.398438 259.769531 226.414062 259.488281 226.378906 259.199219 C 226.339844 258.914062 226.25 258.644531 226.109375 258.390625 C 225.96875 258.140625 225.785156 257.921875 225.5625 257.738281 C 225.335938 257.558594 225.085938 257.425781 224.808594 257.339844 Z M 224.789062 257.332031"/></svg>